<svg width="50" height="49" viewBox="0 0 50 49" fill="none" xmlns="http://www.w3.org/2000/svg">
<path d="M25.0002 0C11.1948 0 0 11.2321 0 25.0882C0 36.1728 7.16332 45.577 17.0967 48.8943C18.3461 49.1266 18.8048 48.3501 18.8048 47.6875C18.8048 47.0892 18.7816 45.1129 18.7709 43.0165C11.8158 44.5342 10.3482 40.0565 10.3482 40.0565C9.21093 37.1566 7.57235 36.3855 7.57235 36.3855C5.30408 34.8284 7.74332 34.8604 7.74332 34.8604C10.2538 35.0374 11.5757 37.4458 11.5757 37.4458C13.8054 41.2812 17.4241 40.1724 18.8508 39.5313C19.0751 37.9098 19.723 36.8031 20.438 36.1766C14.8851 35.5422 9.04782 33.391 9.04782 23.7779C9.04782 21.0388 10.0244 18.8008 11.6237 17.0438C11.3641 16.4119 10.5084 13.8602 11.8659 10.4045C11.8659 10.4045 13.9652 9.73026 18.7427 12.9762C20.7369 12.4203 22.8756 12.1415 25.0002 12.132C27.1248 12.1415 29.2652 12.4203 31.2631 12.9762C36.0348 9.73026 38.1312 10.4045 38.1312 10.4045C39.492 13.8602 38.6359 16.4119 38.3763 17.0438C39.9793 18.8008 40.9493 21.0388 40.9493 23.7779C40.9493 33.4138 35.1008 35.5355 29.5338 36.1566C30.4306 36.9352 31.2296 38.462 31.2296 40.8026C31.2296 44.1594 31.2006 46.8611 31.2006 47.6875C31.2006 48.3551 31.6506 49.1374 32.9178 48.891C42.8458 45.5699 50 36.1691 50 25.0882C50 11.2321 38.8069 0 25.0002 0ZM9.36339 35.7387C9.30833 35.8633 9.11292 35.9007 8.93491 35.8151C8.75358 35.7333 8.65174 35.5634 8.71052 35.4383C8.76434 35.3099 8.96016 35.2742 9.14108 35.3602C9.32282 35.442 9.42632 35.6136 9.36339 35.7387ZM10.5931 36.8398C10.4739 36.9507 10.2408 36.8992 10.0827 36.7239C9.91914 36.549 9.88851 36.3151 10.0094 36.2025C10.1323 36.0916 10.3584 36.1435 10.5223 36.3184C10.6859 36.4954 10.7177 36.7276 10.5931 36.8398ZM11.4368 38.2487C11.2836 38.3555 11.0331 38.2553 10.8783 38.0322C10.7251 37.8091 10.7251 37.5416 10.8816 37.4344C11.0368 37.3272 11.2836 37.4236 11.4405 37.645C11.5933 37.8719 11.5933 38.1394 11.4368 38.2487ZM12.8635 39.8803C12.7265 40.032 12.4346 39.9913 12.221 39.7844C12.0024 39.5821 11.9416 39.295 12.079 39.1433C12.2177 38.9913 12.5112 39.0341 12.7265 39.2393C12.9434 39.4412 13.0097 39.7304 12.8635 39.8803ZM14.7075 40.4312C14.6471 40.6277 14.366 40.717 14.0828 40.6335C13.8 40.5475 13.615 40.3173 13.6721 40.1188C13.7309 39.921 14.0133 39.8279 14.2985 39.9173C14.5808 40.0029 14.7663 40.2313 14.7075 40.4312ZM16.806 40.6648C16.8131 40.8717 16.573 41.0433 16.2757 41.047C15.9768 41.0537 15.735 40.8863 15.7317 40.6827C15.7317 40.4737 15.9665 40.3038 16.2654 40.2988C16.5626 40.293 16.806 40.4592 16.806 40.6648ZM18.8676 40.5855C18.9032 40.7874 18.6966 40.9947 18.4015 41.05C18.1112 41.1032 17.8426 40.9785 17.8057 40.7783C17.7697 40.5714 17.98 40.3641 18.2698 40.3105C18.5654 40.259 18.8299 40.3803 18.8676 40.5855Z" fill="white"/>
</svg>
