<svg width="224" height="161" viewBox="0 0 224 161" fill="none" xmlns="http://www.w3.org/2000/svg">
<g clip-path="url(#clip0_113_79)">
<path d="M207.814 50.8951C210.174 60.1095 209.893 69.9674 206.988 79.9059C204.084 89.8444 198.611 99.6689 190.884 108.819C183.157 117.968 173.326 126.264 161.953 133.232C150.579 140.199 137.886 145.703 124.599 149.428C111.311 153.153 97.6883 155.027 84.5089 154.943C71.3295 154.858 58.8513 152.817 47.7867 148.935C36.7222 145.054 27.288 139.408 20.0228 132.321C12.7576 125.234 7.80368 116.843 5.44389 107.629C3.08409 98.4145 3.36462 88.5566 6.26948 78.6181C9.17434 68.6796 14.6466 58.855 22.3739 49.7054C30.1012 40.5558 39.9321 32.2602 51.3054 25.2924C62.6787 18.3246 75.3716 12.821 88.6594 9.09583C101.947 5.37064 115.57 3.49682 128.749 3.58138C141.929 3.66593 154.407 5.7072 165.471 9.58862C176.536 13.47 185.97 19.1156 193.235 26.203C200.5 33.2904 205.454 41.6808 207.814 50.8951Z" fill="#0062BD"/>
<path d="M145.565 133.652C146.622 137.781 144.432 142.64 139.478 147.16C134.525 151.679 127.212 155.49 119.15 157.752C111.087 160.015 102.936 160.544 96.4876 159.224C90.0396 157.904 85.8236 154.842 84.7671 150.713C83.7106 146.584 85.9001 141.725 90.854 137.205C95.8079 132.685 103.12 128.875 111.183 126.612C119.245 124.35 127.397 123.821 133.845 125.141C140.293 126.461 144.509 129.522 145.565 133.652Z" fill="#E5E5E5"/>
<path fill-rule="evenodd" clip-rule="evenodd" d="M139.117 146.752C144.011 142.287 146.016 137.63 145.036 133.8C144.056 129.97 140.096 126.987 133.726 125.683C127.381 124.384 119.319 124.9 111.319 127.145C103.319 129.39 96.0903 133.165 91.2156 137.612C86.3216 142.077 84.3165 146.734 85.2965 150.564C86.2765 154.395 90.2361 157.377 96.6062 158.682C102.951 159.981 111.013 159.464 119.013 157.219C127.013 154.974 134.242 151.2 139.117 146.752ZM139.478 147.16C144.432 142.64 146.622 137.781 145.565 133.652C144.509 129.522 140.293 126.461 133.845 125.141C127.397 123.821 119.245 124.35 111.183 126.612C103.12 128.875 95.8079 132.685 90.854 137.205C85.9001 141.725 83.7106 146.584 84.7671 150.713C85.8236 154.842 90.0396 157.904 96.4876 159.224C102.936 160.544 111.087 160.015 119.15 157.752C127.212 155.49 134.525 151.679 139.478 147.16Z" fill="black"/>
<path d="M145.064 131.701C146.121 135.83 143.931 140.689 138.978 145.209C134.024 149.729 126.711 153.539 118.649 155.801C110.587 158.064 102.435 158.593 95.9867 157.273C89.5387 155.953 85.3227 152.891 84.2662 148.762C83.2097 144.633 85.3992 139.774 90.3531 135.254C95.307 130.734 102.619 126.924 110.682 124.662C118.744 122.399 126.896 121.87 133.344 123.19C139.792 124.51 144.008 127.571 145.064 131.701Z" fill="#E5E5E5"/>
<path fill-rule="evenodd" clip-rule="evenodd" d="M138.616 144.801C143.51 140.336 145.515 135.68 144.535 131.849C143.555 128.019 139.595 125.036 133.225 123.732C126.881 122.433 118.818 122.95 110.818 125.195C102.818 127.44 95.5894 131.214 90.7148 135.662C85.8207 140.127 83.8157 144.783 84.7956 148.614C85.7756 152.444 89.7352 155.427 96.1053 156.731C102.45 158.03 110.512 157.513 118.513 155.268C126.513 153.023 133.741 149.249 138.616 144.801ZM138.978 145.209C143.931 140.689 146.121 135.83 145.064 131.701C144.008 127.571 139.792 124.51 133.344 123.19C126.896 121.87 118.744 122.399 110.682 124.662C102.619 126.924 95.307 130.734 90.3531 135.254C85.3992 139.774 83.2097 144.633 84.2662 148.762C85.3227 152.891 89.5387 155.953 95.9867 157.273C102.435 158.593 110.587 158.064 118.649 155.801C126.711 153.539 134.024 149.729 138.978 145.209Z" fill="black"/>
<path d="M61.2609 129.168C62.033 132.186 60.4329 135.737 56.8128 139.04C53.1926 142.343 47.8489 145.127 41.9572 146.78C36.0655 148.434 30.1084 148.82 25.3964 147.856C20.6844 146.891 17.6035 144.654 16.8314 141.636C16.0594 138.619 17.6594 135.068 21.2796 131.765C24.8997 128.462 30.2434 125.678 36.1351 124.024C42.0269 122.371 47.984 121.984 52.696 122.949C57.4079 123.914 60.4889 126.151 61.2609 129.168Z" fill="white"/>
<path fill-rule="evenodd" clip-rule="evenodd" d="M56.4511 138.632C60.0114 135.384 61.427 132.036 60.7315 129.317C60.0359 126.598 57.2114 124.44 52.5773 123.491C47.9685 122.548 42.1009 122.921 36.2715 124.557C30.442 126.193 25.1821 128.942 21.6412 132.172C18.0809 135.421 16.6653 138.769 17.3609 141.488C18.0564 144.206 20.8809 146.365 25.515 147.313C30.1238 148.257 35.9914 147.883 41.8209 146.247C47.6503 144.612 52.9103 141.863 56.4511 138.632ZM56.8128 139.04C60.4329 135.737 62.033 132.186 61.2609 129.168C60.4889 126.151 57.4079 123.914 52.696 122.949C47.984 121.984 42.0269 122.371 36.1351 124.024C30.2434 125.678 24.8997 128.462 21.2796 131.765C17.6594 135.068 16.0594 138.619 16.8314 141.636C17.6035 144.654 20.6844 146.891 25.3964 147.856C30.1084 148.82 36.0655 148.434 41.9572 146.78C47.8489 145.127 53.1926 142.343 56.8128 139.04Z" fill="black"/>
<path d="M60.8949 127.743C61.667 130.76 60.0669 134.311 56.4468 137.614C52.8266 140.917 47.4829 143.701 41.5912 145.355C35.6995 147.008 29.7424 147.395 25.0304 146.43C20.3184 145.466 17.2375 143.228 16.4654 140.211C15.6934 137.193 17.2934 133.642 20.9136 130.339C24.5337 127.037 29.8774 124.252 35.7691 122.599C41.6608 120.945 47.6179 120.559 52.3299 121.523C57.0419 122.488 60.1229 124.725 60.8949 127.743Z" fill="#E5E5E5"/>
<path fill-rule="evenodd" clip-rule="evenodd" d="M56.0851 137.207C59.6454 133.958 61.061 130.61 60.3655 127.891C59.6699 125.173 56.8454 123.014 52.2113 122.066C47.6025 121.122 41.7349 121.496 35.9055 123.132C30.076 124.768 24.8161 127.516 21.2752 130.747C17.7149 133.995 16.2993 137.344 16.9949 140.062C17.6904 142.781 20.5149 144.939 25.149 145.888C29.7578 146.831 35.6254 146.458 41.4549 144.822C47.2843 143.186 52.5443 140.437 56.0851 137.207ZM56.4468 137.614C60.0669 134.311 61.667 130.76 60.8949 127.743C60.1229 124.725 57.0419 122.488 52.3299 121.523C47.6179 120.559 41.6609 120.945 35.7691 122.599C29.8774 124.252 24.5337 127.037 20.9136 130.339C17.2934 133.642 15.6934 137.193 16.4654 140.211C17.2375 143.228 20.3184 145.466 25.0304 146.43C29.7424 147.395 35.6995 147.008 41.5912 145.355C47.4829 143.701 52.8266 140.917 56.4468 137.614Z" fill="black"/>
<g filter="url(#filter0_f_113_79)">
<path d="M206.526 45.9372C208.364 53.1145 207.568 60.9552 204.182 69.0114C200.796 77.0676 194.887 85.1817 186.792 92.8903C178.697 100.599 168.575 107.751 157.004 113.939C145.433 120.126 132.639 125.227 119.353 128.952C106.067 132.676 92.5488 134.95 79.5706 135.644C66.5924 136.338 54.4081 135.439 43.7136 132.997C33.019 130.556 24.0236 126.62 17.2408 121.414C10.4581 116.208 6.0209 109.834 4.18258 102.657C2.34426 95.4798 3.14082 87.6392 6.52678 79.5829C9.91274 71.5267 15.8218 63.4126 23.9166 55.704C32.0113 47.9954 42.1333 40.8432 53.7045 34.6558C65.2757 28.4683 78.0696 23.3668 91.3556 19.6425C104.642 15.9183 118.16 13.6441 131.138 12.95C144.116 12.2559 156.3 13.1553 166.995 15.597C177.689 18.0387 186.685 21.9748 193.468 27.1806C200.25 32.3864 204.688 38.7599 206.526 45.9372Z" fill="black"/>
</g>
<path d="M221.075 76.6383C221.847 79.6559 220.247 83.2067 216.627 86.5096C213.007 89.8124 207.663 92.5968 201.771 94.2501C195.879 95.9035 189.922 96.2903 185.21 95.3257C180.498 94.361 177.417 92.1237 176.645 89.1061C175.873 86.0885 177.473 82.5377 181.093 79.2348C184.714 75.932 190.057 73.1476 195.949 71.4943C201.841 69.8409 207.798 69.4541 212.51 70.4187C217.222 71.3834 220.303 73.6207 221.075 76.6383Z" fill="#E5E5E5"/>
<path fill-rule="evenodd" clip-rule="evenodd" d="M216.265 86.102C219.825 82.8538 221.241 79.5054 220.545 76.7868C219.85 74.0683 217.025 71.9098 212.391 70.961C207.782 70.0175 201.915 70.3913 196.085 72.0271C190.256 73.663 184.996 76.4118 181.455 79.6424C177.895 82.8906 176.479 86.239 177.175 88.9575C177.87 91.6761 180.695 93.8346 185.329 94.7834C189.938 95.7269 195.805 95.3531 201.635 93.7173C207.464 92.0814 212.724 89.3326 216.265 86.102ZM216.627 86.5096C220.247 83.2067 221.847 79.6559 221.075 76.6383C220.303 73.6207 217.222 71.3834 212.51 70.4187C207.798 69.4541 201.841 69.8409 195.949 71.4943C190.057 73.1476 184.714 75.932 181.093 79.2348C177.473 82.5377 175.873 86.0885 176.645 89.1061C177.417 92.1237 180.498 94.361 185.21 95.3257C189.922 96.2903 195.879 95.9035 201.771 94.2501C207.663 92.5968 213.007 89.8124 216.627 86.5096Z" fill="black"/>
<path d="M220.709 75.2127C221.481 78.2303 219.881 81.7811 216.261 85.084C212.641 88.3869 207.297 91.1712 201.405 92.8246C195.513 94.4779 189.556 94.8648 184.844 93.9001C180.132 92.9354 177.051 90.6982 176.279 87.6806C175.507 84.6629 177.107 81.1121 180.727 77.8093C184.348 74.5064 189.691 71.722 195.583 70.0687C201.475 68.4154 207.432 68.0285 212.144 68.9932C216.856 69.9579 219.937 72.1951 220.709 75.2127Z" fill="#E5E5E5"/>
<path fill-rule="evenodd" clip-rule="evenodd" d="M215.899 84.6765C219.459 81.4282 220.875 78.0798 220.179 75.3613C219.484 72.6428 216.659 70.4842 212.025 69.5355C207.416 68.5919 201.549 68.9657 195.719 70.6016C189.89 72.2374 184.63 74.9862 181.089 78.2168C177.529 81.465 176.113 84.8135 176.809 87.532C177.504 90.2505 180.329 92.4091 184.963 93.3578C189.572 94.3014 195.439 93.9276 201.269 92.2917C207.098 90.6558 212.358 87.907 215.899 84.6765ZM216.261 85.084C219.881 81.7811 221.481 78.2303 220.709 75.2127C219.937 72.1951 216.856 69.9579 212.144 68.9932C207.432 68.0285 201.475 68.4154 195.583 70.0687C189.691 71.7221 184.348 74.5064 180.727 77.8093C177.107 81.1121 175.507 84.6629 176.279 87.6806C177.051 90.6982 180.132 92.9354 184.844 93.9001C189.556 94.8648 195.513 94.4779 201.405 92.8246C207.297 91.1712 212.641 88.3869 216.261 85.084Z" fill="black"/>
<path d="M207.371 49.1902C209.559 57.7323 209.108 66.9245 206.045 76.2419C202.981 85.5593 197.365 94.8194 189.516 103.493C181.668 112.168 171.741 120.086 160.302 126.796C148.863 133.507 136.137 138.877 122.85 142.602C109.563 146.327 95.9746 148.333 82.8616 148.506C69.7485 148.678 57.3673 147.014 46.4249 143.607C35.4824 140.201 26.193 135.12 19.087 128.653C11.9811 122.187 7.19766 114.462 5.00995 105.92C2.82224 97.3777 3.27307 88.1856 6.3367 78.8682C9.40034 69.5508 15.0168 60.2907 22.8653 51.6166C30.7139 42.9424 40.6409 35.0242 52.0795 28.3139C63.5181 21.6035 76.2443 16.2326 89.5316 12.5077C102.819 8.78276 116.407 6.77681 129.52 6.60436C142.633 6.43192 155.014 8.09636 165.957 11.5026C176.899 14.9089 186.188 19.9904 193.294 26.4568C200.4 32.9233 205.184 40.6481 207.371 49.1902Z" fill="#0062BD"/>
<path fill-rule="evenodd" clip-rule="evenodd" d="M203.429 67.8279C206.775 59.8653 207.549 52.1507 205.746 45.1102C203.943 38.0697 199.585 31.7936 192.881 26.6483C186.174 21.5003 177.254 17.5906 166.614 15.1614C155.976 12.7325 143.843 11.8351 130.906 12.527C117.97 13.2189 104.491 15.486 91.2417 19.2001C77.9921 22.9141 65.2359 28.001 53.7022 34.1684C42.1678 40.3362 32.0889 47.46 24.0368 55.128C15.9833 62.7973 10.1272 70.8489 6.77887 78.8157C3.43226 86.7783 2.65831 94.4928 4.46159 101.533C6.26487 108.574 10.6222 114.85 17.3261 119.995C24.0336 125.143 32.9532 129.053 43.5932 131.482C54.2315 133.911 66.3648 134.808 79.3018 134.116C92.2379 133.425 105.716 131.157 118.966 127.443C132.215 123.729 144.972 118.643 156.505 112.475C168.04 106.307 178.119 99.1835 186.171 91.5155C194.224 83.8462 200.08 75.7946 203.429 67.8279ZM203.931 68.036C207.317 59.9798 208.114 52.1391 206.275 44.9618C204.437 37.7844 200 31.4109 193.217 26.2052C186.434 20.9994 177.439 17.0633 166.744 14.6216C156.05 12.1799 143.866 11.2804 130.888 11.9746C117.909 12.6687 104.391 14.9429 91.1052 18.6671C77.8192 22.3914 65.0253 27.4929 53.4541 33.6804C41.8829 39.8678 31.7609 47.02 23.6661 54.7286C15.5714 62.4372 9.6623 70.5513 6.27634 78.6075C2.89038 86.6638 2.09382 94.5044 3.93214 101.682C5.77047 108.859 10.2077 115.233 16.9904 120.438C23.7732 125.644 32.7686 129.58 43.4632 132.022C54.1577 134.464 66.3419 135.363 79.3201 134.669C92.2983 133.975 105.816 131.701 119.102 127.976C132.388 124.252 145.182 119.151 156.754 112.963C168.325 106.776 178.447 99.6235 186.541 91.9149C194.636 84.2063 200.545 76.0922 203.931 68.036Z" fill="black"/>
<path d="M204.522 38.134C206.361 45.3114 205.564 53.152 202.178 61.2082C198.792 69.2645 192.883 77.3785 184.788 85.0871C176.694 92.7957 166.572 99.948 155.001 106.135C143.429 112.323 130.635 117.424 117.349 121.149C104.063 124.873 90.5453 127.147 77.5671 127.841C64.5889 128.535 52.4047 127.636 41.7101 125.194C31.0156 122.752 22.0201 118.816 15.2374 113.611C8.45462 108.405 4.01742 102.031 2.1791 94.8539C0.340774 87.6766 1.13733 79.836 4.52329 71.7798C7.90926 63.7235 13.8183 55.6095 21.9131 47.9008C30.0079 40.1922 40.1298 33.04 51.701 26.8526C63.2723 20.6651 76.0661 15.5636 89.3522 11.8394C102.638 8.11508 116.156 5.84094 129.134 5.1468C142.113 4.45266 154.297 5.35211 164.991 7.7938C175.686 10.2355 184.681 14.1716 191.464 19.3774C198.247 24.5832 202.684 30.9567 204.522 38.134Z" fill="#E5E5E5"/>
<path fill-rule="evenodd" clip-rule="evenodd" d="M200.424 56.1231C203.77 48.1605 204.544 40.446 202.741 33.4055C200.938 26.3649 196.58 20.0888 189.876 14.9435C183.169 9.79556 174.249 5.88585 163.609 3.45662C152.971 1.02779 140.838 0.130366 127.901 0.822296C114.965 1.51418 101.486 3.78129 88.2365 7.49534C74.9869 11.2094 62.2307 16.2963 50.697 22.4637C39.1626 28.6314 29.0837 35.7553 21.0316 43.4233C12.9781 51.0926 7.12202 59.1442 3.77365 67.1109C0.427042 75.0735 -0.346908 82.788 1.45638 89.8286C3.25966 96.8691 7.617 103.145 14.3209 108.291C21.0283 113.438 29.948 117.348 40.588 119.777C51.2263 122.206 63.3596 123.104 76.2966 122.412C89.2327 121.72 102.711 119.453 115.961 115.739C129.21 112.025 141.967 106.938 153.5 100.77C165.035 94.6026 175.113 87.4788 183.166 79.8107C191.219 72.1414 197.075 64.0899 200.424 56.1231ZM200.926 56.3313C204.312 48.275 205.109 40.4344 203.27 33.257C201.432 26.0797 196.995 19.7062 190.212 14.5004C183.429 9.29464 174.434 5.35853 163.739 2.91684C153.045 0.475161 140.86 -0.424293 127.882 0.269842C114.904 0.963981 101.386 3.23812 88.1 6.9624C74.8139 10.6867 62.0201 15.7882 50.4489 21.9756C38.8776 28.1631 28.7557 35.3153 20.6609 43.0239C12.5662 50.7325 6.65709 58.8466 3.27113 66.9028C-0.114837 74.959 -0.911394 82.7996 0.926929 89.977C2.76525 97.1543 7.20246 103.528 13.9852 108.734C20.7679 113.939 29.7634 117.875 40.4579 120.317C51.1525 122.759 63.3367 123.658 76.3149 122.964C89.2931 122.27 102.811 119.996 116.097 116.272C129.383 112.547 142.177 107.446 153.748 101.258C165.32 95.071 175.441 87.9188 183.536 80.2101C191.631 72.5015 197.54 64.3875 200.926 56.3313Z" fill="black"/>
</g>
<defs>
<filter id="filter0_f_113_79" x="1.86304" y="11.367" width="206.982" height="125.86" filterUnits="userSpaceOnUse" color-interpolation-filters="sRGB">
<feFlood flood-opacity="0" result="BackgroundImageFix"/>
<feBlend mode="normal" in="SourceGraphic" in2="BackgroundImageFix" result="shape"/>
<feGaussianBlur stdDeviation="0.677836" result="effect1_foregroundBlur_113_79"/>
</filter>
<clipPath id="clip0_113_79">
<rect width="224" height="161" fill="white"/>
</clipPath>
</defs>
</svg>
